<svg width="9" height="9" viewBox="0 0 9 9" fill="none" xmlns="http://www.w3.org/2000/svg">
<path d="M1.70711 0.292893C1.31658 -0.0976311 0.683417 -0.0976311 0.292893 0.292893C-0.0976311 0.683417 -0.0976311 1.31658 0.292893 1.70711L1.70711 0.292893ZM7.29289 8.70711C7.68342 9.09763 8.31658 9.09763 8.70711 8.70711C9.09763 8.31658 9.09763 7.68342 8.70711 7.29289L7.29289 8.70711ZM0.292893 1.70711L7.29289 8.70711L8.70711 7.29289L1.70711 0.292893L0.292893 1.70711Z" fill="white"/>
<path d="M8.70711 1.70711C9.09763 1.31658 9.09763 0.683418 8.70711 0.292893C8.31658 -0.0976311 7.68342 -0.0976311 7.29289 0.292893L8.70711 1.70711ZM0.292893 7.29289C-0.0976308 7.68342 -0.0976308 8.31658 0.292893 8.70711C0.683417 9.09763 1.31658 9.09763 1.70711 8.70711L0.292893 7.29289ZM7.29289 0.292893L0.292893 7.29289L1.70711 8.70711L8.70711 1.70711L7.29289 0.292893Z" fill="white"/>
</svg>
