<svg width="60" height="60" viewBox="0 0 60 60" fill="none" xmlns="http://www.w3.org/2000/svg">
<path d="M30 0H0V30C0 46.5675 13.4325 60 30 60H60V30C60 13.4325 46.5675 0 30 0ZM54.9997 54.9997H30C16.2157 54.9997 5.00025 43.7842 5.00025 30V5.00025H30C43.7842 5.00025 54.9997 16.2165 54.9997 30V54.9997Z" fill="black"/>
<path d="M30.0002 10C18.955 10 10 18.955 10 30.0002C10 41.0455 18.955 50.0005 30.0002 50.0005C41.0455 50.0005 50.0005 41.0455 50.0005 30.0002C50.0005 18.955 41.0455 10 30.0002 10ZM30.0002 45.0003C21.7142 45.0003 15.0002 38.284 15.0002 30.0002C15.0002 21.7165 21.7142 15.0002 30.0002 15.0002C38.284 15.0002 45.0003 21.7165 45.0003 30.0002C45.0003 38.284 38.284 45.0003 30.0002 45.0003Z" fill="black"/>
<path d="M29.9998 20C24.4775 20 20 24.4775 20 29.9998C20 35.522 24.4775 39.9995 29.9998 39.9995C35.522 39.9995 39.9995 35.522 39.9995 29.9998C39.9995 24.4775 35.522 20 29.9998 20ZM29.9998 35C27.2383 35 24.9995 32.7613 24.9995 29.9998C24.9995 27.2383 27.2383 24.9995 29.9998 24.9995C32.7613 24.9995 35 27.2383 35 29.9998C35 32.7613 32.7613 35 29.9998 35Z" fill="black"/>
</svg>
