<svg width="60" height="56" viewBox="0 0 60 56" fill="none" xmlns="http://www.w3.org/2000/svg">
<path d="M4.89568e-06 -5.24537e-06L17.9295 33.4693L8.75025 50.4005L26.9993 50.4005L30 56L33.0008 50.4005L51.2498 50.4005L42.0705 33.4693L60 0L4.89568e-06 -5.24537e-06ZM17.6348 44.8002L20.8357 38.8941L23.9993 44.8002L17.6348 44.8002ZM29.829 44.8002L23.769 33.4853L30 21.9897L36.231 33.4853L30.171 44.8002L29.829 44.8002ZM42.363 44.8002L36.0008 44.8002L39.165 38.8941L42.363 44.8002ZM30 11.1998L20.8613 28.0571L8.83051 5.59949L51.1695 5.5995L39.1388 28.0571L30 11.1998Z" fill="black"/>
</svg>
