<svg width="54" height="60" viewBox="0 0 54 60" fill="none" xmlns="http://www.w3.org/2000/svg">
<path d="M44.2603 60H28.0408C22.6714 60 18.3041 55.5488 18.3041 50.0805C18.3041 48.2318 18.7975 46.4647 19.7179 44.9287C17.9271 44.526 16.2858 43.6103 14.9626 42.258C11.1711 38.3932 11.1682 32.0993 14.9626 28.2323L23.1147 19.839L9.73672 19.836C4.36801 19.836 0 15.3855 0 9.9165C0 4.4475 4.36875 0 9.73745 0H25.9599C31.3294 0 35.6966 4.44825 35.6966 9.91725C35.6966 11.7682 35.2033 13.5375 34.2799 15.0735C36.0707 15.4785 37.7127 16.392 39.0382 17.742C40.8768 19.6147 41.8878 22.1047 41.8878 24.7567C41.8878 27.4028 40.8768 29.8965 39.036 31.7685L30.8831 40.164H44.2603C49.6298 40.164 54 44.6123 54 50.0813C54 55.5488 49.6298 60 44.2603 60ZM26.0299 45.1635L24.6367 46.5967C23.7163 47.5342 23.2126 48.7695 23.2126 50.0827C23.2126 52.7925 25.3767 54.9997 28.0408 54.9997H44.2603C46.9237 54.9997 49.0908 52.7933 49.0908 50.0805C49.0908 47.3678 46.9244 45.1628 44.2603 45.1628H26.0299V45.1635ZM30.0187 19.839L18.4433 31.758C16.5546 33.6863 16.5546 36.8062 18.4381 38.7255C19.3438 39.6532 20.5522 40.164 21.8423 40.164H23.9799L35.5552 28.242C36.4779 27.3045 36.9793 26.0693 36.9793 24.756C36.9793 23.4427 36.4779 22.2053 35.5648 21.2745C34.6569 20.349 33.4456 19.839 32.1541 19.839H30.0187ZM9.73745 5.00025C7.07703 5.00025 4.90996 7.20675 4.90996 9.91725C4.90996 12.6322 7.07629 14.8373 9.73745 14.8373L27.9694 14.8395L29.3648 13.404C30.2874 12.4665 30.7889 11.2313 30.7889 9.918C30.7889 7.20825 28.6218 5.001 25.9606 5.001H9.73745V5.00025Z" fill="black"/>
</svg>
