<!-- Generated by IcoMoon.io -->
<svg version="1.1" xmlns="http://www.w3.org/2000/svg" width="541" height="512" viewBox="0 0 541 512">
<title></title>
<g id="icomoon-ignore">
</g>
<path d="M220.434 0c-113.635 0-206.212 92.576-206.212 206.212s92.578 206.212 206.212 206.212c49.145 0 94.29-17.374 129.771-46.219l139.548 139.548c8.332 8.329 21.891 8.329 30.222 0 8.328-8.332 8.328-21.669 0-30l-139.548-139.548c28.905-35.498 46.219-80.792 46.219-129.993 0-113.635-92.578-206.212-206.213-206.212zM220.434 42.664c90.578 0 163.548 72.97 163.548 163.548s-72.971 163.548-163.548 163.548c-90.577 0-163.548-72.971-163.548-163.548s72.971-163.548 163.548-163.548z"></path>
</svg>
