<svg width="24" height="21" viewBox="0 0 24 21" fill="none" xmlns="http://www.w3.org/2000/svg">
<path d="M24 3.05729C23.117 3.44929 22.168 3.71329 21.172 3.83229C22.189 3.22329 22.97 2.25829 23.337 1.10829C22.386 1.67229 21.332 2.08229 20.21 2.30329C19.313 1.34629 18.032 0.748291 16.616 0.748291C13.437 0.748291 11.101 3.71429 11.819 6.79329C7.728 6.58829 4.1 4.62829 1.671 1.64929C0.381 3.86229 1.002 6.75729 3.194 8.22329C2.388 8.19729 1.628 7.97629 0.965 7.60729C0.911 9.88829 2.546 12.0223 4.914 12.4973C4.221 12.6853 3.462 12.7293 2.69 12.5813C3.316 14.5373 5.134 15.9603 7.29 16.0003C5.22 17.6233 2.612 18.3483 0 18.0403C2.179 19.4373 4.768 20.2523 7.548 20.2523C16.69 20.2523 21.855 12.5313 21.543 5.60629C22.505 4.91129 23.34 4.04429 24 3.05729Z" fill="#8FACC0"/>
</svg>
